<svg width="100" height="100" viewBox="0 0 100 100" fill="none" xmlns="http://www.w3.org/2000/svg">
<path d="M59.6716 48.6618C61.2337 50.2239 63.7663 50.2239 65.3284 48.6618C66.8905 47.0997 66.8905 44.567 65.3284 43.0049L59.6716 48.6618ZM50 33.3333L52.8284 30.5049C51.2663 28.9428 48.7337 28.9428 47.1716 30.5049L50 33.3333ZM34.6716 43.0049C33.1095 44.567 33.1095 47.0997 34.6716 48.6618C36.2337 50.2239 38.7663 50.2239 40.3284 48.6618L34.6716 43.0049ZM46 66.6667C46 68.8758 47.7909 70.6667 50 70.6667C52.2091 70.6667 54 68.8758 54 66.6667H46ZM91.5 50C91.5 27.0802 72.9198 8.5 50 8.5V16.5C68.5015 16.5 83.5 31.4985 83.5 50H91.5ZM50 8.5C27.0802 8.5 8.5 27.0802 8.5 50H16.5C16.5 31.4985 31.4985 16.5 50 16.5V8.5ZM8.5 50C8.5 72.9198 27.0802 91.5 50 91.5V83.5C31.4985 83.5 16.5 68.5015 16.5 50H8.5ZM50 91.5C72.9198 91.5 91.5 72.9198 91.5 50H83.5C83.5 68.5015 68.5015 83.5 50 83.5V91.5ZM65.3284 43.0049L52.8284 30.5049L47.1716 36.1618L59.6716 48.6618L65.3284 43.0049ZM47.1716 30.5049L34.6716 43.0049L40.3284 48.6618L52.8284 36.1618L47.1716 30.5049ZM46 33.3333V66.6667H54V33.3333H46Z" fill="#21446F"/>
</svg>
